<?xml version="1.0" encoding="iso-8859-1"?>
<!-- Generator: Adobe Illustrator 19.0.0, SVG Export Plug-In . SVG Version: 6.00 Build 0)  -->
<svg version="1.1" id="Capa_1" xmlns="http://www.w3.org/2000/svg" xmlns:xlink="http://www.w3.org/1999/xlink" x="0px" y="0px"
	 viewBox="0 0 512 512" style="enable-background:new 0 0 512 512;" xml:space="preserve">
<g>
	<g>
		<path d="M387.287,456.263c-0.048-2.864-1.794-5.536-4.407-6.717c-11.4-5.166-51.697-31.534-51.697-57.28v-28.951l37.876-37.876
			c1.395-1.394,2.203-3.348,2.202-5.318c-0.001-38.484-19.531-79.619-58.047-122.262c-11.536-12.771-23.004-23.667-32.619-32.149
			l81.577,17.481c3.581,0.768,7.192-1.157,8.552-4.557l16.031-40.078c1.116-2.791,0.462-5.979-1.663-8.105L296.921,42.28
			c-1.409-1.41-3.32-2.201-5.313-2.201h-16.532V7.515c0-4.15-3.365-7.515-7.515-7.515h-16.031c-2.282,0-4.442,1.038-5.867,2.82
			l-30.469,38.087c-28.414,7.325-50.522,23.908-65.737,49.316c-20.579,34.366-28.382,83.934-23.194,147.327
			c3.822,46.7,13.4,82.989,13.806,84.511c0.394,1.484,1.271,2.854,2.45,3.837l45.39,37.825v28.543
			c0,7.903-8.156,20.35-22.377,34.148c-13.376,12.978-26.393,21.807-29.32,23.132c-2.651,1.197-4.413,3.938-4.413,6.845v48.094
			c0,4.15,3.365,7.515,7.515,7.515h240.47c4.15,0,7.515-3.365,7.515-7.515v-48.094C387.294,456.348,387.288,456.306,387.287,456.263
			z M168.081,327.64h112.171c4.15,0,7.515-3.365,7.515-7.515s-3.365-7.515-7.515-7.515h-127.03
			c-6.375-27.232-31.194-147.364,9.138-214.684c13.501-22.537,33.294-37.01,58.828-43.019c1.636-0.385,3.097-1.308,4.147-2.621
			l29.805-37.257h4.905v32.564c0,4.15,3.365,7.515,7.515,7.515h20.935l82.467,82.467l-11.837,29.593l-106.021-22.718
			c-3.441-0.737-7.028,1.095-8.45,4.313c-1.421,3.219-0.356,7.104,2.507,9.149c1.058,0.755,102.658,74.241,108.784,154.699h-39.958
			c-4.15,0-7.515,3.365-7.515,7.515s3.365,7.515,7.515,7.515h29.619l-25.049,25.049H198.14L168.081,327.64z M316.155,367.718v17.033
			H202.934v-17.033H316.155z M175.995,437.2c14.425-13.996,23.112-26.544,25.929-37.419h114.933
			c3.681,19.894,21.214,37.389,36.774,49.096H162.909C167.26,445.289,171.765,441.303,175.995,437.2z M372.265,496.971h-225.44
			v-33.065h225.44V496.971z"/>
	</g>
</g>
<g>
	<g>
		<circle cx="275.577" cy="87.671" r="8.016"/>
	</g>
</g>
<g>
</g>
<g>
</g>
<g>
</g>
<g>
</g>
<g>
</g>
<g>
</g>
<g>
</g>
<g>
</g>
<g>
</g>
<g>
</g>
<g>
</g>
<g>
</g>
<g>
</g>
<g>
</g>
<g>
</g>
</svg>
